<svg id="visual" viewBox="0 0 1440 560" width="1440" height="560" xmlns="http://www.w3.org/2000/svg" xmlns:xlink="http://www.w3.org/1999/xlink" version="1.1"><rect x="0" y="0" width="1440" height="560" fill="#cfd1ff"></rect><path d="M0 378L21.8 374.2C43.7 370.3 87.3 362.7 131 359.7C174.7 356.7 218.3 358.3 262 365.3C305.7 372.3 349.3 384.7 393 387.7C436.7 390.7 480.3 384.3 524 379.2C567.7 374 611.3 370 654.8 371C698.3 372 741.7 378 785.2 380C828.7 382 872.3 380 916 376C959.7 372 1003.3 366 1047 369C1090.7 372 1134.3 384 1178 384.5C1221.7 385 1265.3 374 1309 368.2C1352.7 362.3 1396.3 361.7 1418.2 361.3L1440 361L1440 561L1418.2 561C1396.3 561 1352.7 561 1309 561C1265.3 561 1221.7 561 1178 561C1134.3 561 1090.7 561 1047 561C1003.3 561 959.7 561 916 561C872.3 561 828.7 561 785.2 561C741.7 561 698.3 561 654.8 561C611.3 561 567.7 561 524 561C480.3 561 436.7 561 393 561C349.3 561 305.7 561 262 561C218.3 561 174.7 561 131 561C87.3 561 43.7 561 21.8 561L0 561Z" fill="#9fa1e3"></path><path d="M0 398L21.8 399.5C43.7 401 87.3 404 131 406C174.7 408 218.3 409 262 410.2C305.7 411.3 349.3 412.7 393 409.3C436.7 406 480.3 398 524 399.7C567.7 401.3 611.3 412.7 654.8 413.2C698.3 413.7 741.7 403.3 785.2 401.5C828.7 399.7 872.3 406.3 916 410.5C959.7 414.7 1003.3 416.3 1047 419.3C1090.7 422.3 1134.3 426.7 1178 423.5C1221.7 420.3 1265.3 409.7 1309 402.3C1352.7 395 1396.3 391 1418.2 389L1440 387L1440 561L1418.2 561C1396.3 561 1352.7 561 1309 561C1265.3 561 1221.7 561 1178 561C1134.3 561 1090.7 561 1047 561C1003.3 561 959.7 561 916 561C872.3 561 828.7 561 785.2 561C741.7 561 698.3 561 654.8 561C611.3 561 567.7 561 524 561C480.3 561 436.7 561 393 561C349.3 561 305.7 561 262 561C218.3 561 174.7 561 131 561C87.3 561 43.7 561 21.8 561L0 561Z" fill="#8f89eb"></path><path d="M0 428L21.8 431.3C43.7 434.7 87.3 441.3 131 445.7C174.7 450 218.3 452 262 449C305.7 446 349.3 438 393 437.3C436.7 436.7 480.3 443.3 524 444C567.7 444.7 611.3 439.3 654.8 437.3C698.3 435.3 741.7 436.7 785.2 437.7C828.7 438.7 872.3 439.3 916 438.3C959.7 437.3 1003.3 434.7 1047 437.7C1090.7 440.7 1134.3 449.3 1178 453.7C1221.7 458 1265.3 458 1309 455.5C1352.7 453 1396.3 448 1418.2 445.5L1440 443L1440 561L1418.2 561C1396.3 561 1352.7 561 1309 561C1265.3 561 1221.7 561 1178 561C1134.3 561 1090.7 561 1047 561C1003.3 561 959.7 561 916 561C872.3 561 828.7 561 785.2 561C741.7 561 698.3 561 654.8 561C611.3 561 567.7 561 524 561C480.3 561 436.7 561 393 561C349.3 561 305.7 561 262 561C218.3 561 174.7 561 131 561C87.3 561 43.7 561 21.8 561L0 561Z" fill="#866ef0"></path><path d="M0 462L21.8 466C43.7 470 87.3 478 131 480C174.7 482 218.3 478 262 473.8C305.7 469.7 349.3 465.3 393 467.8C436.7 470.3 480.3 479.7 524 484.3C567.7 489 611.3 489 654.8 488.2C698.3 487.3 741.7 485.7 785.2 486.3C828.7 487 872.3 490 916 487.2C959.7 484.3 1003.3 475.7 1047 471.3C1090.7 467 1134.3 467 1178 466C1221.7 465 1265.3 463 1309 464.3C1352.7 465.7 1396.3 470.3 1418.2 472.7L1440 475L1440 561L1418.2 561C1396.3 561 1352.7 561 1309 561C1265.3 561 1221.7 561 1178 561C1134.3 561 1090.7 561 1047 561C1003.3 561 959.7 561 916 561C872.3 561 828.7 561 785.2 561C741.7 561 698.3 561 654.8 561C611.3 561 567.7 561 524 561C480.3 561 436.7 561 393 561C349.3 561 305.7 561 262 561C218.3 561 174.7 561 131 561C87.3 561 43.7 561 21.8 561L0 561Z" fill="#834ef0"></path><path d="M0 515L21.8 512.8C43.7 510.7 87.3 506.3 131 507C174.7 507.7 218.3 513.3 262 515.5C305.7 517.7 349.3 516.3 393 516.8C436.7 517.3 480.3 519.7 524 517.2C567.7 514.7 611.3 507.3 654.8 505.5C698.3 503.7 741.7 507.3 785.2 510C828.7 512.7 872.3 514.3 916 514.8C959.7 515.3 1003.3 514.7 1047 512.7C1090.7 510.7 1134.3 507.3 1178 507.2C1221.7 507 1265.3 510 1309 513.2C1352.7 516.3 1396.3 519.7 1418.2 521.3L1440 523L1440 561L1418.2 561C1396.3 561 1352.7 561 1309 561C1265.3 561 1221.7 561 1178 561C1134.3 561 1090.7 561 1047 561C1003.3 561 959.7 561 916 561C872.3 561 828.7 561 785.2 561C741.7 561 698.3 561 654.8 561C611.3 561 567.7 561 524 561C480.3 561 436.7 561 393 561C349.3 561 305.7 561 262 561C218.3 561 174.7 561 131 561C87.3 561 43.7 561 21.8 561L0 561Z" fill="#861aeb"></path></svg>